<svg version="1.1" xmlns="http://www.w3.org/2000/svg" viewBox="221 224 985 376" width="985" height="376">
<path fill="#7CCBF2" opacity="1.000000" stroke="none" fill-rule="evenodd" 
	d="
M407.882660,411.241272 
	C406.216614,410.810638 404.552704,410.016205 402.884155,410.006287 
	C387.889648,409.917023 372.894287,409.965698 357.899200,409.973572 
	C356.271606,409.974426 354.644012,409.973694 352.699036,409.973694 
	C352.699036,399.768707 352.699036,390.014130 352.699036,379.935333 
	C383.054443,379.935333 413.287476,379.935333 443.733429,379.935333 
	C443.806976,381.357056 443.932159,382.654663 443.932678,383.952301 
	C443.943970,412.776215 443.880188,441.600403 444.013062,470.423706 
	C444.031311,474.378326 442.847687,477.240936 440.088898,480.089478 
	C425.054077,495.613190 406.628815,504.539368 385.615601,508.364075 
	C360.735382,512.892578 336.078674,512.299377 312.448975,502.470184 
	C281.573334,489.626953 261.163666,466.563446 252.448914,434.564423 
	C241.439529,394.140076 241.792557,353.340027 255.772675,313.572327 
	C271.044830,270.129425 310.732239,245.251556 356.678528,248.443802 
	C374.421661,249.676559 391.183380,253.666245 406.275299,263.412628 
	C428.232605,277.592651 438.909668,298.671051 443.053253,323.718903 
	C443.403076,325.833618 443.619110,327.970459 443.947144,330.478210 
	C431.900513,330.478210 420.146271,330.478210 407.911224,330.478210 
	C407.460999,328.703003 406.882568,326.669128 406.431854,324.607330 
	C401.128937,300.349487 387.467346,283.827179 362.231812,279.744293 
	C336.157349,275.525665 314.587280,283.693115 299.389435,306.175415 
	C289.100952,321.395294 285.121552,338.683777 283.361633,356.556610 
	C281.227692,378.227661 281.831207,399.851898 287.064331,421.096069 
	C292.366791,442.621918 303.195404,460.450714 323.110779,471.577209 
	C344.994141,483.803131 387.338745,483.291168 407.317993,463.059021 
	C408.291992,461.464386 408.949493,460.251740 408.955170,459.036102 
	C409.026489,443.813324 409.018494,428.590057 408.956940,413.367188 
	C408.954071,412.657104 408.256622,411.949829 407.882660,411.241272 
z"/>
<path fill="#7BCBF2" opacity="1.000000" stroke="none" fill-rule="evenodd" 
	d="
M965.870605,324.981873 
	C965.870605,324.981873 966.028442,325.412476 966.025513,326.107758 
	C966.275391,330.519623 966.350342,334.262543 966.894165,337.936066 
	C967.049194,338.983521 968.565613,339.829437 969.457825,340.767761 
	C970.173828,339.712341 970.889832,338.656921 971.605835,337.601501 
	C971.605835,337.601501 971.629578,337.725311 971.866089,337.611542 
	C972.380798,336.959778 972.658997,336.421753 972.937134,335.883759 
	C972.937134,335.883759 972.961853,335.953339 973.277832,335.907776 
	C974.978455,334.137512 976.363037,332.412781 977.747681,330.688080 
	C977.747681,330.688080 977.776550,330.780151 978.093384,330.776093 
	C979.575500,329.461792 980.740784,328.151550 981.906006,326.841339 
	C981.906006,326.841339 981.912292,326.917969 982.183044,326.862061 
	C982.800049,326.350128 983.146301,325.894104 983.492554,325.438080 
	C983.492554,325.438080 983.687866,325.728180 983.967957,325.664673 
	C985.387512,324.580597 986.526917,323.560028 987.666321,322.539429 
	C987.666321,322.539429 987.698608,322.641266 988.031006,322.673035 
	C992.177551,321.107300 995.897766,319.215546 999.821716,317.961273 
	C1021.100098,311.159668 1041.699585,312.318237 1061.387939,323.546417 
	C1062.769165,324.334137 1064.501221,324.506531 1066.070190,324.965057 
	C1066.070190,324.965057 1066.013428,324.996643 1066.076294,325.319305 
	C1067.455322,326.412018 1068.771606,327.182098 1070.087769,327.952148 
	C1070.087769,327.952148 1070.025024,327.985382 1070.073608,328.296661 
	C1073.426758,331.735046 1076.731201,334.862122 1080.035767,337.989197 
	C1080.035767,337.989197 1079.993408,337.999786 1080.011475,338.349274 
	C1082.696533,342.462158 1085.363647,346.225555 1088.030762,349.988953 
	C1088.030762,349.988953 1087.990479,349.991272 1088.047119,350.270874 
	C1088.432495,351.028198 1088.761108,351.505890 1089.089722,351.983582 
	C1089.089722,351.983582 1089.021729,351.968658 1089.068115,352.238922 
	C1089.439331,353.000122 1089.764160,353.491089 1090.088989,353.982025 
	C1090.088989,353.982025 1090.021118,353.968353 1090.024658,354.339661 
	C1090.426392,356.303864 1090.740845,357.923431 1091.237915,359.484863 
	C1093.099854,365.334167 1095.639038,371.044769 1096.798096,377.025635 
	C1099.614990,391.559998 1101.133789,406.341125 1099.823975,421.104889 
	C1098.907837,431.429199 1096.767944,441.692596 1094.502319,451.833008 
	C1092.961182,458.730408 1090.257446,465.368073 1088.073730,472.121887 
	C1088.073730,472.121887 1088.039673,472.055542 1087.729492,472.122040 
	C1086.442871,474.272827 1085.466675,476.357117 1084.490479,478.441406 
	C1084.490479,478.441406 1084.437622,478.348022 1084.184448,478.454926 
	C1083.676880,479.116852 1083.422363,479.671906 1083.167847,480.226929 
	C1083.167847,480.226929 1083.137573,480.102722 1082.941895,480.257629 
	C1082.502075,480.954956 1082.257812,481.497345 1082.013550,482.039734 
	C1082.013550,482.039734 1081.991211,482.003387 1081.691528,482.091980 
	C1081.030029,482.902069 1080.668335,483.623596 1080.306641,484.345093 
	C1080.306519,484.345093 1080.285034,484.222992 1080.065674,484.336121 
	C1079.555786,484.953613 1079.265137,485.458008 1078.974487,485.962402 
	C1078.834961,486.257751 1078.695557,486.553162 1078.100830,487.075562 
	C1077.441528,487.582092 1077.237549,487.861664 1077.033569,488.141235 
	C1077.033569,488.141205 1077.034180,488.055908 1076.727051,488.095551 
	C1074.641235,490.139282 1072.862549,492.143372 1071.083740,494.147461 
	C1071.083740,494.147461 1071.072510,494.051361 1070.889404,494.178223 
	C1070.477539,494.569641 1070.248657,494.834229 1070.019897,495.098816 
	C1070.019897,495.098816 1070.027832,495.028473 1069.755615,495.095459 
	C1069.110352,495.612762 1068.737549,496.063110 1068.364624,496.513458 
	C1068.364624,496.513458 1068.351196,496.419250 1068.031250,496.373047 
	C1066.639648,497.398193 1065.568115,498.469543 1064.496460,499.540894 
	C1064.496460,499.540894 1064.239014,499.408966 1064.093750,499.477356 
	C1063.676147,499.796326 1063.403809,500.046906 1063.131348,500.297485 
	C1063.131348,500.297455 1063.140015,500.178009 1062.835938,500.157227 
	C1061.701904,500.788269 1060.871826,501.440033 1060.041870,502.091858 
	C1060.041870,502.091858 1060.042603,502.020020 1059.718872,502.034119 
	C1058.271973,502.719208 1057.148682,503.390198 1056.025513,504.061218 
	C1056.025513,504.061218 1056.026489,503.998108 1055.644775,504.013397 
	C1048.997437,505.474121 1042.799927,507.478943 1036.452393,508.251373 
	C1022.166321,509.989807 1007.986572,509.774872 994.633057,503.153473 
	C993.222473,502.454071 991.487671,502.408295 989.903320,502.059265 
	C989.903320,502.059265 989.962585,502.013733 989.882080,501.701904 
	C988.387939,500.757721 986.974182,500.125366 985.560486,499.493011 
	C985.560486,499.493011 985.648499,499.444885 985.544800,499.150940 
	C984.425171,498.276703 983.409363,497.696381 982.393494,497.116089 
	C981.654907,496.609100 980.916321,496.102142 979.935547,495.125061 
	C979.417358,494.450989 979.141479,494.247009 978.865601,494.043030 
	C978.865601,494.043030 978.940918,494.044800 978.898804,493.733337 
	C976.503662,491.307220 974.150696,489.192596 971.797729,487.077942 
	C971.309875,486.723114 970.822021,486.368286 969.780884,485.774078 
	C968.818665,487.331940 968.058716,489.128174 968.053528,490.926544 
	C967.978333,517.061401 967.955994,543.196655 968.059875,569.331299 
	C968.074768,573.079041 967.512329,575.233887 962.958618,575.077515 
	C954.143066,574.774719 945.309631,574.989014 935.997559,574.989014 
	C935.997559,571.853149 935.997498,569.887329 935.997498,567.921509 
	C935.999268,487.019348 936.001099,406.117188 936.002869,325.215027 
	C936.002869,324.882080 936.043945,324.543213 935.996765,324.217102 
	C935.323120,319.564240 937.002747,317.496704 941.996948,317.916199 
	C946.625305,318.304901 951.354431,318.394226 955.962341,317.899628 
	C961.676086,317.286346 965.194519,318.936127 965.870605,324.981873 
M1023.694763,480.305359 
	C1041.549683,478.250336 1052.891357,467.551453 1058.915649,451.611298 
	C1068.930542,425.112122 1069.406128,398.086121 1058.929443,371.575653 
	C1048.091919,344.152130 1017.280823,333.840546 992.931641,349.002350 
	C982.468872,355.517303 976.526672,365.812408 971.604736,376.677887 
	C970.412842,379.309052 969.801758,382.426880 969.778992,385.327667 
	C969.636292,403.485107 969.718384,421.644501 969.782654,439.803070 
	C969.789062,441.614746 969.865662,443.528351 970.430969,445.220459 
	C977.698547,466.973480 997.908081,483.159576 1023.694763,480.305359 
z"/>
<path fill="#7BCCF3" opacity="1.000000" stroke="none" fill-rule="evenodd" 
	d="
M829.942200,467.859985 
	C830.731812,466.969879 831.521484,466.079803 832.819214,464.947144 
	C833.531433,464.423248 833.735535,464.141968 833.939636,463.860657 
	C833.939636,463.860657 833.947021,463.934265 834.238037,463.866943 
	C834.927124,463.096863 835.325134,462.394073 835.723145,461.691315 
	C835.723145,461.691315 835.741089,461.787384 835.927979,461.656677 
	C836.228333,461.200500 836.341919,460.875000 836.455444,460.549469 
	C836.599121,460.641144 836.742798,460.732819 837.004333,460.616272 
	C837.721375,459.230133 838.320557,458.052277 838.919678,456.874390 
	C838.919678,456.874390 838.944641,456.946686 839.148804,456.778870 
	C839.564453,456.067871 839.776062,455.524689 839.987671,454.981537 
	C839.987671,454.981537 840.002441,454.998383 840.210205,454.762451 
	C840.552979,454.126862 840.687927,453.727203 840.822876,453.327545 
	C840.822876,453.327545 840.747925,453.127319 841.150635,452.881958 
	C841.906677,451.311737 842.260071,449.986938 842.613403,448.662140 
	C842.613464,448.662140 842.653320,448.772369 842.923523,448.599243 
	C844.459595,442.478516 846.773743,436.539398 846.822021,430.581940 
	C847.148438,390.283142 846.995972,349.980469 846.997925,309.679047 
	C846.998718,293.358643 847.103210,277.037079 846.928833,260.718536 
	C846.882141,256.349091 848.467041,254.785461 852.777893,254.931274 
	C859.764404,255.167648 866.764648,254.988586 873.759094,254.999161 
	C880.949402,255.010025 880.974548,255.028168 880.975159,262.264618 
	C880.979736,315.056152 880.969482,367.847687 881.009216,420.639191 
	C881.010803,422.758636 881.467041,424.877747 881.711365,426.997009 
	C881.755676,427.435883 881.799927,427.874725 881.415527,428.816528 
	C879.371094,437.985962 877.767151,446.654663 876.132629,455.317566 
	C875.624146,458.012573 875.032593,460.691925 874.479004,463.378418 
	C874.479004,463.378418 874.377563,463.248688 874.129517,463.411102 
	C873.611450,464.416412 873.341370,465.259308 873.071350,466.102203 
	C873.071350,466.102203 873.030762,466.043274 872.830444,466.231018 
	C872.448181,466.983856 872.266235,467.548950 872.084229,468.114044 
	C872.084229,468.114044 872.041809,468.051636 871.837830,468.232117 
	C871.439392,468.970428 871.244934,469.528229 871.050537,470.086029 
	C871.050476,470.086029 871.015137,470.028259 870.822144,470.242249 
	C870.476624,470.843353 870.324097,471.230469 870.171570,471.617584 
	C870.171570,471.617584 870.205750,471.882843 869.764709,472.034119 
	C869.059265,472.935059 868.794861,473.684692 868.530518,474.434326 
	C868.364868,474.335358 868.199158,474.236359 867.980042,474.362091 
	C867.691467,475.143250 867.456177,475.699738 867.220947,476.256195 
	C867.220947,476.256195 867.193787,476.144348 866.978943,476.283691 
	C866.514526,476.961975 866.265015,477.500977 866.015442,478.039948 
	C866.015442,478.039948 865.991943,478.004578 865.694580,478.087555 
	C865.015747,478.876160 864.634216,479.581757 864.252686,480.287415 
	C864.252686,480.287415 864.239380,480.195404 864.037964,480.321533 
	C863.672913,480.766479 863.509277,481.085297 863.345642,481.404144 
	C863.345642,481.404144 863.324524,481.295654 863.136597,481.404602 
	C862.827576,481.827332 862.706421,482.141083 862.585327,482.454834 
	C862.585327,482.454834 862.514099,482.459961 862.227844,482.527588 
	C861.627563,483.075684 861.313599,483.556152 860.999573,484.036621 
	C860.224670,484.958374 859.449768,485.880157 858.158813,487.019989 
	C857.426270,487.496429 857.209717,487.754791 856.993103,488.013153 
	C856.993103,488.013153 856.994629,487.994446 856.708252,488.060303 
	C856.099060,488.587891 855.776123,489.049591 855.453186,489.511292 
	C855.453186,489.511292 855.244568,489.309845 855.098022,489.433899 
	C854.744385,489.839600 854.537231,490.121307 854.330078,490.403015 
	C854.330078,490.402985 854.209656,490.211426 853.932007,490.251831 
	C852.779907,491.244293 851.905579,492.196289 851.031189,493.148254 
	C850.731506,493.464203 850.431885,493.780121 849.587524,494.219696 
	C848.720703,494.636963 848.398560,494.930634 848.076416,495.224274 
	C848.076416,495.224274 848.095154,495.118469 847.832153,495.153442 
	C847.143311,495.596954 846.717468,496.005524 846.291626,496.414124 
	C846.291626,496.414093 846.277649,496.309723 846.061279,496.369110 
	C845.581177,496.669464 845.317383,496.910461 845.053528,497.151428 
	C845.053528,497.151428 845.069641,497.073639 844.794434,497.105469 
	C844.055725,497.516510 843.592224,497.895721 843.128784,498.274902 
	C843.128784,498.274902 843.135681,498.172211 842.864990,498.190735 
	C842.133484,498.602417 841.672729,498.995544 841.211914,499.388672 
	C841.211914,499.388672 841.211975,499.242737 841.018005,499.304596 
	C840.553284,499.594086 840.282532,499.821716 840.011780,500.049377 
	C840.011780,500.049377 840.013489,499.993439 839.726440,500.040100 
	C838.941772,500.432526 838.444153,500.778320 837.946594,501.124115 
	C837.946594,501.124115 837.874023,501.265900 837.419312,501.236023 
	C836.378540,501.612366 835.792419,502.018555 835.206299,502.424713 
	C835.206299,502.424713 835.211426,502.306213 834.890747,502.248840 
	C833.112183,502.905792 831.654297,503.620148 830.196411,504.334503 
	C830.196411,504.334503 830.191589,504.244537 829.826477,504.205444 
	C822.551453,505.705780 815.648926,507.279938 808.728271,508.769287 
	C805.495728,509.464905 802.227966,509.996429 798.976135,510.602356 
	C795.950256,510.676910 792.924316,510.751434 789.276672,510.388611 
	C784.960449,509.423615 781.237244,509.044647 777.577820,508.335999 
	C770.962891,507.055054 764.386047,505.577271 757.793335,504.181671 
	C757.793335,504.181671 757.882202,504.146973 757.696655,503.932800 
	C756.895752,503.604401 756.280457,503.490173 755.665100,503.375916 
	C755.665100,503.375946 755.769653,503.341644 755.634644,503.066650 
	C751.975830,501.214294 748.452148,499.636902 744.928406,498.059540 
	C744.928406,498.059540 744.982056,497.997192 744.800171,497.829742 
	C744.291504,497.543427 743.964722,497.424530 743.637939,497.305664 
	C743.637939,497.305664 743.775635,497.279999 743.644165,497.059967 
	C742.958313,496.588928 742.403931,496.337952 741.849487,496.086975 
	C722.618286,484.529388 712.024414,467.078918 708.148560,445.443146 
	C706.660095,437.134369 705.997498,428.573944 705.966797,420.124573 
	C705.769958,366.007599 705.853638,311.889648 705.845032,257.772003 
	C705.844849,256.640686 705.845032,255.509369 705.845032,254.081146 
	C717.962158,254.081146 729.708435,254.081146 742.212158,254.081146 
	C742.212158,255.904968 742.212708,257.819031 742.212097,259.733093 
	C742.195435,312.019012 742.128174,364.304993 742.203552,416.590790 
	C742.219116,427.384827 741.734253,438.347290 745.990784,448.606812 
	C747.818115,453.011383 750.478516,457.070374 753.000488,461.823578 
	C753.430786,462.643158 753.678711,462.859467 753.984253,463.009766 
	C753.984253,463.009766 754.000000,463.000000 754.054077,463.302246 
	C754.539978,463.976013 754.971680,464.347534 755.403442,464.719025 
	C755.403442,464.719025 755.264954,464.723816 755.325317,465.011780 
	C756.366333,466.098053 757.346924,466.896362 758.327515,467.694641 
	C758.327515,467.694672 758.242981,467.715302 758.365356,467.914551 
	C758.809021,468.249878 759.130249,468.385925 759.451538,468.521973 
	C759.451538,468.521973 759.202454,468.742096 759.375488,468.914429 
	C760.054138,469.380127 760.559814,469.673431 761.065491,469.966736 
	C761.065491,469.966736 761.013489,470.001282 761.100952,470.303894 
	C762.149536,471.057037 763.110718,471.507568 764.071838,471.958069 
	C764.071838,471.958069 764.020874,471.997070 764.232056,472.189545 
	C764.821777,472.535492 765.200378,472.688965 765.578918,472.842407 
	C765.578918,472.842407 765.850769,472.795013 766.099731,473.100830 
	C766.671387,473.513763 766.994080,473.620819 767.316833,473.727905 
	C767.316833,473.727905 767.192627,473.757446 767.360352,473.974854 
	C768.140015,474.311584 768.751953,474.430878 769.363831,474.550171 
	C769.363831,474.550171 769.263123,474.602142 769.403809,474.891937 
	C774.873474,478.614716 780.701233,479.875214 786.977051,479.184631 
	C787.429321,479.165527 787.881653,479.146454 788.836182,479.569275 
	C797.915405,481.869568 806.163818,481.293884 813.870117,476.700592 
	C813.870117,476.700592 813.846436,476.807770 814.113403,476.814148 
	C814.919067,476.529877 815.457703,476.239258 815.996399,475.948639 
	C815.996399,475.948639 816.143433,475.720642 816.663086,475.805847 
	C818.437744,475.217255 819.692810,474.543457 820.947815,473.869629 
	C820.947815,473.869629 820.932190,473.941803 821.210022,473.912354 
	C821.978760,473.538788 822.469666,473.194672 822.960632,472.850586 
	C822.960632,472.850586 822.942688,472.932922 823.254395,472.936310 
	C824.372925,472.283325 825.179810,471.626953 825.986633,470.970581 
	C825.986633,470.970581 825.996033,471.005524 826.281372,470.947296 
	C826.971497,470.477325 827.376221,470.065552 827.780945,469.653778 
	C827.780945,469.653778 827.785583,469.749054 828.074158,469.736694 
	C828.889221,469.102905 829.415710,468.481445 829.942200,467.859985 
z"/>
<path fill="#7CCBF2" opacity="1.000000" stroke="none" fill-rule="evenodd" 
	d="
M547.497742,315.496887 
	C565.913696,311.067505 583.920227,311.009613 601.645996,316.568970 
	C630.337585,325.567535 649.013733,345.093964 657.932373,373.415619 
	C666.577576,400.869080 666.429749,428.623840 656.001770,455.699524 
	C641.098267,494.395721 605.638245,513.944519 564.080139,510.591553 
	C541.641968,508.781219 522.074646,500.523560 506.740967,483.674866 
	C493.962219,469.633545 486.465881,452.977600 483.586578,434.219238 
	C479.766815,409.333740 481.169189,384.957153 492.033051,361.907806 
	C503.219818,338.173218 521.533386,322.467926 547.497742,315.496887 
M586.822815,343.465485 
	C559.687378,337.775726 537.444397,347.405090 526.182739,371.091827 
	C513.282959,398.223969 513.256897,426.013306 526.482178,453.027496 
	C535.982300,472.432617 552.928650,481.134094 574.196411,480.693787 
	C595.598083,480.250641 611.302856,470.221161 620.343018,450.546661 
	C629.925842,429.691010 630.861267,408.026978 625.126831,386.113861 
	C619.818237,365.827850 608.883423,350.086823 586.822815,343.465485 
z"/>
<path fill="#86E6B3" opacity="1.000000" stroke="none" fill-rule="evenodd" 
	d="
M1103.006348,309.930756 
	C1091.445312,290.534698 1096.605591,267.237061 1114.781616,255.617676 
	C1132.079224,244.559860 1155.444092,249.411072 1167.486572,266.560730 
	C1179.490723,283.655548 1175.594116,307.133148 1158.632080,319.910797 
	C1142.362183,332.167053 1118.604980,329.256592 1105.625244,313.408813 
	C1104.781982,312.379242 1104.002075,311.297913 1103.006348,309.930756 
z"/>
<path fill="#8ECBEA" opacity="1.000000" stroke="none" fill-rule="evenodd" 
	d="
M965.947144,324.612183 
	C965.194519,318.936127 961.676086,317.286346 955.962341,317.899628 
	C951.354431,318.394226 946.625305,318.304901 941.996948,317.916199 
	C937.002747,317.496704 935.323120,319.564240 935.996765,324.217102 
	C936.043945,324.543213 936.002869,324.882080 936.002869,325.215027 
	C936.001099,406.117188 935.999268,487.019348 935.997498,567.921509 
	C935.997498,569.887329 935.997559,571.853149 935.997559,574.989014 
	C945.309631,574.989014 954.143066,574.774719 962.958618,575.077515 
	C967.512329,575.233887 968.074768,573.079041 968.059875,569.331299 
	C967.955994,543.196655 967.978333,517.061401 968.053528,490.926544 
	C968.058716,489.128174 968.818665,487.331940 969.522278,485.608215 
	C969.785828,513.662903 969.754456,541.644043 969.723755,569.625244 
	C969.721558,571.589417 969.723450,573.553650 969.723450,575.827820 
	C957.873169,575.827820 946.484924,575.827820 934.845581,575.827820 
	C934.845581,489.341248 934.845581,402.965210 934.845581,316.368744 
	C945.238953,316.368744 955.349060,316.368744 966.023621,316.368744 
	C966.023621,319.072845 966.023621,321.657654 965.947144,324.612183 
z"/>
<path fill="#8FC3DE" opacity="1.000000" stroke="none" fill-rule="evenodd" 
	d="
M881.827271,426.540283 
	C881.467041,424.877747 881.010803,422.758636 881.009216,420.639191 
	C880.969482,367.847687 880.979736,315.056152 880.975159,262.264618 
	C880.974548,255.028168 880.949402,255.010025 873.759094,254.999161 
	C866.764648,254.988586 859.764404,255.167648 852.777893,254.931274 
	C848.467041,254.785461 846.882141,256.349091 846.928833,260.718536 
	C847.103210,277.037079 846.998718,293.358643 846.997925,309.679047 
	C846.995972,349.980469 847.148438,390.283142 846.822021,430.581940 
	C846.773743,436.539398 844.459595,442.478516 842.864990,448.602936 
	C843.610107,437.448486 845.539612,426.122650 845.611084,414.785065 
	C845.938965,362.805023 845.746887,310.821655 845.741516,258.839508 
	C845.741394,257.353638 845.741516,255.867767 845.741516,254.047638 
	C857.848633,254.047638 869.740479,254.047638 881.943237,254.047638 
	C881.943237,311.497498 881.943237,368.790527 881.827271,426.540283 
z"/>
<path fill="#8ECBEA" opacity="1.000000" stroke="none" fill-rule="evenodd" 
	d="
M1088.361816,471.927887 
	C1090.257446,465.368073 1092.961182,458.730408 1094.502319,451.833008 
	C1096.767944,441.692596 1098.907837,431.429199 1099.823975,421.104889 
	C1101.133789,406.341125 1099.614990,391.559998 1096.798096,377.025635 
	C1095.639038,371.044769 1093.099854,365.334167 1091.237915,359.484863 
	C1090.740845,357.923431 1090.426392,356.303864 1090.040527,354.308960 
	C1096.341797,365.483887 1099.145996,378.143707 1100.631592,391.006653 
	C1103.532227,416.122284 1101.675171,440.810089 1091.988037,464.502533 
	C1090.984253,466.957520 1089.767822,469.325531 1088.361816,471.927887 
z"/>
<path fill="#8ECBEA" opacity="1.000000" stroke="none" fill-rule="evenodd" 
	d="
M1065.904663,324.668030 
	C1064.501221,324.506531 1062.769165,324.334137 1061.387939,323.546417 
	C1041.699585,312.318237 1021.100098,311.159668 999.821716,317.961273 
	C995.897766,319.215546 992.177551,321.107300 987.981445,322.652985 
	C1002.951538,312.121887 1020.071594,311.006775 1037.735474,313.426697 
	C1047.885498,314.817200 1057.291504,318.453644 1065.904663,324.668030 
z"/>
<path fill="#8ECBEA" opacity="1.000000" stroke="none" fill-rule="evenodd" 
	d="
M990.102783,502.341431 
	C991.487671,502.408295 993.222473,502.454071 994.633057,503.153473 
	C1007.986572,509.774872 1022.166321,509.989807 1036.452393,508.251373 
	C1042.799927,507.478943 1048.997437,505.474121 1055.666992,504.035889 
	C1041.510254,511.254456 1026.088623,512.441162 1010.450928,509.487244 
	C1003.548828,508.183472 997.007446,504.970062 990.102783,502.341431 
z"/>
<path fill="#8FC3DE" opacity="1.000000" stroke="none" fill-rule="evenodd" 
	d="
M874.704712,463.105743 
	C875.032593,460.691925 875.624146,458.012573 876.132629,455.317566 
	C877.767151,446.654663 879.371094,437.985962 881.313477,429.133789 
	C881.535706,440.665253 879.264404,451.953369 874.704712,463.105743 
z"/>
<path fill="#97D0EB" opacity="1.000000" stroke="none" fill-rule="evenodd" 
	d="
M407.773743,411.625488 
	C408.256622,411.949829 408.954071,412.657104 408.956940,413.367188 
	C409.018494,428.590057 409.026489,443.813324 408.955170,459.036102 
	C408.949493,460.251740 408.291992,461.464386 407.603973,462.869507 
	C407.411438,459.717834 407.552338,456.375031 407.840576,452.217957 
	C407.964935,450.866364 407.941956,450.329010 407.918976,449.791687 
	C407.845673,448.832336 407.772339,447.873016 407.852661,446.083038 
	C407.979279,438.095001 407.952240,430.937622 407.925232,423.780212 
	C407.847321,422.181488 407.769409,420.582764 407.826599,418.240417 
	C407.946289,417.259003 407.930847,417.021210 407.915436,416.783386 
	C407.831909,415.192169 407.748352,413.600983 407.773743,411.625488 
z"/>
<path fill="#8FC3DE" opacity="1.000000" stroke="none" fill-rule="evenodd" 
	d="
M758.036926,504.450073 
	C764.386047,505.577271 770.962891,507.055054 777.577820,508.335999 
	C781.237244,509.044647 784.960449,509.423615 788.835693,510.275848 
	C778.771179,508.639801 768.525879,506.679108 758.036926,504.450073 
z"/>
<path fill="#8FC3DE" opacity="1.000000" stroke="none" fill-rule="evenodd" 
	d="
M799.403198,510.678284 
	C802.227966,509.996429 805.495728,509.464905 808.728271,508.769287 
	C815.648926,507.279938 822.551453,505.705780 829.867371,504.224365 
	C820.125671,506.439636 809.977905,508.596924 799.403198,510.678284 
z"/>
<path fill="#8FC3DE" opacity="1.000000" stroke="none" fill-rule="evenodd" 
	d="
M813.454468,476.727356 
	C806.163818,481.293884 797.915405,481.869568 789.159546,479.680481 
	C797.000000,478.484558 805.019348,477.619354 813.454468,476.727356 
z"/>
<path fill="#8ECBEA" opacity="1.000000" stroke="none" fill-rule="evenodd" 
	d="
M971.323792,337.826721 
	C970.889832,338.656921 970.173828,339.712341 969.457825,340.767761 
	C968.565613,339.829437 967.049194,338.983521 966.894165,337.936066 
	C966.350342,334.262543 966.275391,330.519623 966.038452,326.336700 
	C966.765442,329.853058 967.467285,333.837402 968.195374,337.816986 
	C968.334412,338.577057 968.576599,339.318298 968.909546,340.601715 
	C969.847290,339.480347 970.444519,338.766144 971.323792,337.826721 
z"/>
<path fill="#8ECBEA" opacity="1.000000" stroke="none" fill-rule="evenodd" 
	d="
M1079.939087,337.664886 
	C1076.731201,334.862122 1073.426758,331.735046 1070.080322,328.261810 
	C1073.306396,331.057312 1076.574463,334.198944 1079.939087,337.664886 
z"/>
<path fill="#8FC3DE" opacity="1.000000" stroke="none" fill-rule="evenodd" 
	d="
M786.606079,479.048828 
	C780.701233,479.875214 774.873474,478.614716 769.420166,474.837708 
	C774.942200,475.966766 780.588623,477.439880 786.606079,479.048828 
z"/>
<path fill="#8ECBEA" opacity="1.000000" stroke="none" fill-rule="evenodd" 
	d="
M1087.987671,349.637665 
	C1085.363647,346.225555 1082.696533,342.462158 1080.021362,338.329895 
	C1082.657104,341.736145 1085.300903,345.511261 1087.987671,349.637665 
z"/>
<path fill="#7CCBF2" opacity="1.000000" stroke="none" fill-rule="evenodd" 
	d="
M407.804016,424.185669 
	C407.952240,430.937622 407.979279,438.095001 407.965210,445.736511 
	C407.843689,439.010773 407.763245,431.800964 407.804016,424.185669 
z"/>
<path fill="#8ECBEA" opacity="1.000000" stroke="none" fill-rule="evenodd" 
	d="
M971.918335,487.393890 
	C974.150696,489.192596 976.503662,491.307220 978.895020,493.770813 
	C976.635193,491.983124 974.337097,489.846497 971.918335,487.393890 
z"/>
<path fill="#8FC3DE" opacity="1.000000" stroke="none" fill-rule="evenodd" 
	d="
M745.120605,498.340637 
	C748.452148,499.636902 751.975830,501.214294 755.635498,503.121704 
	C752.285217,501.841705 748.799072,500.231720 745.120605,498.340637 
z"/>
<path fill="#8ECBEA" opacity="1.000000" stroke="none" fill-rule="evenodd" 
	d="
M1071.397705,494.032440 
	C1072.862549,492.143372 1074.641235,490.139282 1076.769653,488.098389 
	C1075.316772,490.013519 1073.514160,491.965485 1071.397705,494.032440 
z"/>
<path fill="#8ECBEA" opacity="1.000000" stroke="none" fill-rule="evenodd" 
	d="
M977.445129,330.818848 
	C976.363037,332.412781 974.978455,334.137512 973.241211,335.902832 
	C974.306641,334.278809 975.724609,332.614197 977.445129,330.818848 
z"/>
<path fill="#8ECBEA" opacity="1.000000" stroke="none" fill-rule="evenodd" 
	d="
M1084.739258,478.224701 
	C1085.466675,476.357117 1086.442871,474.272827 1087.766724,472.122192 
	C1087.072266,474.039886 1086.030151,476.023956 1084.739258,478.224701 
z"/>
<path fill="#8ECBEA" opacity="1.000000" stroke="none" fill-rule="evenodd" 
	d="
M981.592041,326.934570 
	C980.740784,328.151550 979.575500,329.461792 978.047485,330.761230 
	C978.882507,329.509552 980.080322,328.268677 981.592041,326.934570 
z"/>
<path fill="#8ECBEA" opacity="1.000000" stroke="none" fill-rule="evenodd" 
	d="
M1064.787842,499.410767 
	C1065.568115,498.469543 1066.639648,497.398193 1068.076416,496.388092 
	C1067.320801,497.393097 1066.199951,498.336884 1064.787842,499.410767 
z"/>
<path fill="#8ECBEA" opacity="1.000000" stroke="none" fill-rule="evenodd" 
	d="
M985.773682,499.734406 
	C986.974182,500.125366 988.387939,500.757721 989.877747,501.739014 
	C988.631531,501.383911 987.309204,500.679840 985.773682,499.734406 
z"/>
<path fill="#8ECBEA" opacity="1.000000" stroke="none" fill-rule="evenodd" 
	d="
M1069.933350,327.668427 
	C1068.771606,327.182098 1067.455322,326.412018 1066.082886,325.287537 
	C1067.277344,325.750305 1068.528076,326.567505 1069.933350,327.668427 
z"/>
<path fill="#8ECBEA" opacity="1.000000" stroke="none" fill-rule="evenodd" 
	d="
M987.359131,322.636108 
	C986.526917,323.560028 985.387512,324.580597 983.891602,325.507446 
	C984.707336,324.520050 985.879578,323.626434 987.359131,322.636108 
z"/>
<path fill="#8FC3DE" opacity="1.000000" stroke="none" fill-rule="evenodd" 
	d="
M851.336853,493.056580 
	C851.905579,492.196289 852.779907,491.244293 854.014893,490.328827 
	C853.464539,491.231873 852.553528,492.098358 851.336853,493.056580 
z"/>
<path fill="#8FC3DE" opacity="1.000000" stroke="none" fill-rule="evenodd" 
	d="
M830.546509,504.300476 
	C831.654297,503.620148 833.112183,502.905792 834.947510,502.266022 
	C833.848816,502.982544 832.372742,503.624481 830.546509,504.300476 
z"/>
<path fill="#8FC3DE" opacity="1.000000" stroke="none" fill-rule="evenodd" 
	d="
M758.195190,467.410217 
	C757.346924,466.896362 756.366333,466.098053 755.338135,464.943695 
	C756.214722,465.433685 757.138794,466.279724 758.195190,467.410217 
z"/>
<path fill="#8ECBEA" opacity="1.000000" stroke="none" fill-rule="evenodd" 
	d="
M1056.361450,504.053284 
	C1057.148682,503.390198 1058.271973,502.719208 1059.749023,502.053772 
	C1058.967651,502.721344 1057.832520,503.383362 1056.361450,504.053284 
z"/>
<path fill="#8FC3DE" opacity="1.000000" stroke="none" fill-rule="evenodd" 
	d="
M842.381531,448.909973 
	C842.260071,449.986938 841.906677,451.311737 841.244629,452.831085 
	C841.340515,451.736328 841.745117,450.447083 842.381531,448.909973 
z"/>
<path fill="#8FC3DE" opacity="1.000000" stroke="none" fill-rule="evenodd" 
	d="
M820.588013,473.887024 
	C819.692810,474.543457 818.437744,475.217255 816.791199,475.850342 
	C817.675842,475.174561 818.952026,474.539490 820.588013,473.887024 
z"/>
<path fill="#8ECBEA" opacity="1.000000" stroke="none" fill-rule="evenodd" 
	d="
M1060.363770,502.062622 
	C1060.871826,501.440033 1061.701904,500.788269 1062.894287,500.170532 
	C1062.399658,500.814209 1061.542725,501.423828 1060.363770,502.062622 
z"/>
<path fill="#8FC3DE" opacity="1.000000" stroke="none" fill-rule="evenodd" 
	d="
M825.674561,471.022644 
	C825.179810,471.626953 824.372925,472.283325 823.214111,472.924011 
	C823.695618,472.297119 824.529053,471.685913 825.674561,471.022644 
z"/>
<path fill="#8FC3DE" opacity="1.000000" stroke="none" fill-rule="evenodd" 
	d="
M763.892212,471.702942 
	C763.110718,471.507568 762.149536,471.057037 761.107605,470.273438 
	C761.922058,470.442841 762.817261,470.945343 763.892212,471.702942 
z"/>
<path fill="#8FC3DE" opacity="1.000000" stroke="none" fill-rule="evenodd" 
	d="
M838.653809,457.053162 
	C838.320557,458.052277 837.721375,459.230133 836.786377,460.474609 
	C837.096313,459.438080 837.742188,458.335022 838.653809,457.053162 
z"/>
<path fill="#8FC3DE" opacity="1.000000" stroke="none" fill-rule="evenodd" 
	d="
M829.649597,467.938354 
	C829.415710,468.481445 828.889221,469.102905 828.027649,469.725891 
	C828.247375,469.157166 828.802185,468.586914 829.649597,467.938354 
z"/>
<path fill="#8ECBEA" opacity="1.000000" stroke="none" fill-rule="evenodd" 
	d="
M982.575073,497.411438 
	C983.409363,497.696381 984.425171,498.276703 985.547241,499.201050 
	C984.687866,498.932312 983.722290,498.319580 982.575073,497.411438 
z"/>
<path fill="#8FC3DE" opacity="1.000000" stroke="none" fill-rule="evenodd" 
	d="
M864.532227,480.167603 
	C864.634216,479.581757 865.015747,478.876160 865.715576,478.090637 
	C865.626587,478.689758 865.219238,479.368805 864.532227,480.167603 
z"/>
<path fill="#8ECBEA" opacity="1.000000" stroke="none" fill-rule="evenodd" 
	d="
M1080.576538,484.205627 
	C1080.668335,483.623596 1081.030029,482.902069 1081.712646,482.094543 
	C1081.637817,482.694397 1081.242065,483.380249 1080.576538,484.205627 
z"/>
<path fill="#8FC3DE" opacity="1.000000" stroke="none" fill-rule="evenodd" 
	d="
M868.753540,474.245361 
	C868.794861,473.684692 869.059265,472.935059 869.640747,472.084137 
	C869.630676,472.674011 869.303589,473.365204 868.753540,474.245361 
z"/>
<path fill="#8FC3DE" opacity="1.000000" stroke="none" fill-rule="evenodd" 
	d="
M835.452271,461.820343 
	C835.325134,462.394073 834.927124,463.096863 834.201416,463.861633 
	C834.309631,463.265564 834.745544,462.607483 835.452271,461.820343 
z"/>
<path fill="#8FC3DE" opacity="1.000000" stroke="none" fill-rule="evenodd" 
	d="
M873.326904,465.905457 
	C873.341370,465.259308 873.611450,464.416412 874.203796,463.446716 
	C874.211487,464.116150 873.896973,464.912415 873.326904,465.905457 
z"/>
<path fill="#8FC3DE" opacity="1.000000" stroke="none" fill-rule="evenodd" 
	d="
M841.515869,499.332611 
	C841.672729,498.995544 842.133484,498.602417 842.915039,498.202881 
	C842.763733,498.556519 842.291748,498.916534 841.515869,499.332611 
z"/>
<path fill="#8ECBEA" opacity="1.000000" stroke="none" fill-rule="evenodd" 
	d="
M1089.070801,351.681793 
	C1088.761108,351.505890 1088.432495,351.028198 1088.060059,350.255371 
	C1088.361572,350.433472 1088.706665,350.906738 1089.070801,351.681793 
z"/>
<path fill="#8FC3DE" opacity="1.000000" stroke="none" fill-rule="evenodd" 
	d="
M846.582520,496.342834 
	C846.717468,496.005524 847.143311,495.596954 847.883667,495.168701 
	C847.756592,495.523193 847.315002,495.897369 846.582520,496.342834 
z"/>
<path fill="#8ECBEA" opacity="1.000000" stroke="none" fill-rule="evenodd" 
	d="
M1068.637207,496.400208 
	C1068.737549,496.063110 1069.110352,495.612762 1069.789795,495.104553 
	C1069.700684,495.460083 1069.305176,495.873535 1068.637207,496.400208 
z"/>
<path fill="#8FC3DE" opacity="1.000000" stroke="none" fill-rule="evenodd" 
	d="
M855.713013,489.396088 
	C855.776123,489.049591 856.099060,488.587891 856.717529,488.060913 
	C856.666443,488.424072 856.319702,488.852478 855.713013,489.396088 
z"/>
<path fill="#7CCBF2" opacity="1.000000" stroke="none" fill-rule="evenodd" 
	d="
M407.795715,450.014832 
	C407.941956,450.329010 407.964935,450.866364 407.953949,451.806519 
	C407.837463,451.552246 407.754974,450.895142 407.795715,450.014832 
z"/>
<path fill="#8FC3DE" opacity="1.000000" stroke="none" fill-rule="evenodd" 
	d="
M839.746399,455.157043 
	C839.776062,455.524689 839.564453,456.067871 839.111816,456.788574 
	C839.082153,456.421570 839.293640,455.877075 839.746399,455.157043 
z"/>
<path fill="#8FC3DE" opacity="1.000000" stroke="none" fill-rule="evenodd" 
	d="
M741.994263,496.356171 
	C742.403931,496.337952 742.958313,496.588928 743.642761,497.130005 
	C743.228210,497.155182 742.683594,496.890289 741.994263,496.356171 
z"/>
<path fill="#8FC3DE" opacity="1.000000" stroke="none" fill-rule="evenodd" 
	d="
M843.433960,498.230591 
	C843.592224,497.895721 844.055725,497.516510 844.832275,497.117371 
	C844.676575,497.460358 844.207825,497.823334 843.433960,498.230591 
z"/>
<path fill="#8ECBEA" opacity="1.000000" stroke="none" fill-rule="evenodd" 
	d="
M1079.240967,485.837952 
	C1079.265137,485.458008 1079.555786,484.953613 1080.127441,484.339722 
	C1080.108276,484.724670 1079.807861,485.219086 1079.240967,485.837952 
z"/>
<path fill="#8ECBEA" opacity="1.000000" stroke="none" fill-rule="evenodd" 
	d="
M972.666382,336.016571 
	C972.658997,336.421753 972.380798,336.959778 971.803406,337.605133 
	C971.801331,337.191437 972.098511,336.670410 972.666382,336.016571 
z"/>
<path fill="#8FC3DE" opacity="1.000000" stroke="none" fill-rule="evenodd" 
	d="
M861.259888,483.935364 
	C861.313599,483.556152 861.627563,483.075684 862.241943,482.560425 
	C862.201599,482.961761 861.860901,483.397949 861.259888,483.935364 
z"/>
<path fill="#8FC3DE" opacity="1.000000" stroke="none" fill-rule="evenodd" 
	d="
M867.479370,476.115173 
	C867.456177,475.699738 867.691467,475.143250 868.234375,474.499939 
	C868.273987,474.933441 868.005920,475.453766 867.479370,476.115173 
z"/>
<path fill="#8FC3DE" opacity="1.000000" stroke="none" fill-rule="evenodd" 
	d="
M872.334045,467.936157 
	C872.266235,467.548950 872.448181,466.983856 872.865845,466.225769 
	C872.928955,466.607910 872.756409,467.183075 872.334045,467.936157 
z"/>
<path fill="#8FC3DE" opacity="1.000000" stroke="none" fill-rule="evenodd" 
	d="
M871.301758,469.913940 
	C871.244934,469.528229 871.439392,468.970428 871.875488,468.230164 
	C871.929138,468.612396 871.741028,469.177124 871.301758,469.913940 
z"/>
<path fill="#8FC3DE" opacity="1.000000" stroke="none" fill-rule="evenodd" 
	d="
M760.940063,469.710571 
	C760.559814,469.673431 760.054138,469.380127 759.481323,468.786316 
	C759.881042,468.808716 760.347839,469.131561 760.940063,469.710571 
z"/>
<path fill="#8FC3DE" opacity="1.000000" stroke="none" fill-rule="evenodd" 
	d="
M827.494019,469.721863 
	C827.376221,470.065552 826.971497,470.477325 826.266968,470.935913 
	C826.380493,470.585175 826.793823,470.187531 827.494019,469.721863 
z"/>
<path fill="#8FC3DE" opacity="1.000000" stroke="none" fill-rule="evenodd" 
	d="
M835.561401,502.364227 
	C835.792419,502.018555 836.378540,501.612366 837.342712,501.214417 
	C837.119324,501.583008 836.517944,501.943390 835.561401,502.364227 
z"/>
<path fill="#8FC3DE" opacity="1.000000" stroke="none" fill-rule="evenodd" 
	d="
M822.655151,472.882263 
	C822.469666,473.194672 821.978760,473.538788 821.177124,473.895538 
	C821.360901,473.576752 821.855286,473.245331 822.655151,472.882263 
z"/>
<path fill="#8FC3DE" opacity="1.000000" stroke="none" fill-rule="evenodd" 
	d="
M769.147095,474.337067 
	C768.751953,474.430878 768.140015,474.311584 767.357910,473.911072 
	C767.768555,473.794586 768.349426,473.959259 769.147095,474.337067 
z"/>
<path fill="#8FC3DE" opacity="1.000000" stroke="none" fill-rule="evenodd" 
	d="
M755.880249,503.602905 
	C756.280457,503.490173 756.895752,503.604401 757.706909,503.979401 
	C757.300293,504.103394 756.697815,503.966614 755.880249,503.602905 
z"/>
<path fill="#8ECBEA" opacity="1.000000" stroke="none" fill-rule="evenodd" 
	d="
M983.228516,325.552307 
	C983.146301,325.894104 982.800049,326.350128 982.145630,326.853271 
	C982.213135,326.489075 982.588867,326.077789 983.228516,325.552307 
z"/>
<path fill="#8FC3DE" opacity="1.000000" stroke="none" fill-rule="evenodd" 
	d="
M815.680786,475.930542 
	C815.457703,476.239258 814.919067,476.529877 814.062744,476.793060 
	C814.285095,476.481232 814.825073,476.196838 815.680786,475.930542 
z"/>
<path fill="#8FC3DE" opacity="1.000000" stroke="none" fill-rule="evenodd" 
	d="
M866.279053,477.892273 
	C866.265015,477.500977 866.514526,476.961975 867.036377,476.279633 
	C867.053284,476.672363 866.797974,477.208466 866.279053,477.892273 
z"/>
<path fill="#8FC3DE" opacity="1.000000" stroke="none" fill-rule="evenodd" 
	d="
M838.260681,501.110474 
	C838.444153,500.778320 838.941772,500.432526 839.748718,500.057068 
	C839.563660,500.383911 839.069214,500.740387 838.260681,501.110474 
z"/>
<path fill="#8FC3DE" opacity="1.000000" stroke="none" fill-rule="evenodd" 
	d="
M755.320068,464.442657 
	C754.971680,464.347534 754.539978,463.976013 754.048340,463.310272 
	C754.404541,463.399445 754.820618,463.782867 755.320068,464.442657 
z"/>
<path fill="#8ECBEA" opacity="1.000000" stroke="none" fill-rule="evenodd" 
	d="
M1083.431274,480.083313 
	C1083.422363,479.671906 1083.676880,479.116852 1084.237549,478.462982 
	C1084.260742,478.889343 1083.977661,479.414520 1083.431274,480.083313 
z"/>
<path fill="#8ECBEA" opacity="1.000000" stroke="none" fill-rule="evenodd" 
	d="
M1090.074219,353.674377 
	C1089.764160,353.491089 1089.439331,353.000122 1089.082153,352.207031 
	C1089.386353,352.392181 1089.722900,352.879456 1090.074219,353.674377 
z"/>
<path fill="#8ECBEA" opacity="1.000000" stroke="none" fill-rule="evenodd" 
	d="
M1082.276367,481.886200 
	C1082.257812,481.497345 1082.502075,480.954956 1083.005249,480.249207 
	C1083.022583,480.634735 1082.780884,481.183685 1082.276367,481.886200 
z"/>
<path fill="#8FC3DE" opacity="1.000000" stroke="none" fill-rule="evenodd" 
	d="
M863.591858,481.283813 
	C863.509277,481.085297 863.672913,480.766479 864.084106,480.327209 
	C864.167175,480.525696 864.002625,480.844604 863.591858,481.283813 
z"/>
<path fill="#8FC3DE" opacity="1.000000" stroke="none" fill-rule="evenodd" 
	d="
M840.292969,500.035278 
	C840.282532,499.821716 840.553284,499.594086 841.089844,499.317474 
	C841.095154,499.519409 840.834656,499.770325 840.292969,500.035278 
z"/>
<path fill="#8ECBEA" opacity="1.000000" stroke="none" fill-rule="evenodd" 
	d="
M1063.405396,500.246521 
	C1063.403809,500.046906 1063.676147,499.796326 1064.233032,499.516602 
	C1064.238159,499.723511 1063.958862,499.959534 1063.405396,500.246521 
z"/>
<path fill="#8FC3DE" opacity="1.000000" stroke="none" fill-rule="evenodd" 
	d="
M767.171509,473.498260 
	C766.994080,473.620819 766.671387,473.513763 766.169067,473.220093 
	C766.335022,473.111908 766.680603,473.190247 767.171509,473.498260 
z"/>
<path fill="#7CCBF2" opacity="1.000000" stroke="none" fill-rule="evenodd" 
	d="
M407.791565,416.941193 
	C407.930847,417.021210 407.946289,417.259003 407.939514,417.854248 
	C407.834137,417.840790 407.750916,417.469879 407.791565,416.941193 
z"/>
<path fill="#8FC3DE" opacity="1.000000" stroke="none" fill-rule="evenodd" 
	d="
M840.561768,453.530304 
	C840.687927,453.727203 840.552979,454.126862 840.200500,454.759155 
	C840.088867,454.572205 840.194824,454.152618 840.561768,453.530304 
z"/>
<path fill="#8FC3DE" opacity="1.000000" stroke="none" fill-rule="evenodd" 
	d="
M836.246765,460.698822 
	C836.341919,460.875000 836.228333,461.200500 835.879272,461.652252 
	C835.775208,461.468414 835.906616,461.158295 836.246765,460.698822 
z"/>
<path fill="#8FC3DE" opacity="1.000000" stroke="none" fill-rule="evenodd" 
	d="
M753.936462,462.746277 
	C753.678711,462.859467 753.430786,462.643158 753.132507,462.136353 
	C753.312561,462.102203 753.600647,462.292480 753.936462,462.746277 
z"/>
<path fill="#8FC3DE" opacity="1.000000" stroke="none" fill-rule="evenodd" 
	d="
M833.677368,463.948395 
	C833.735535,464.141968 833.531433,464.423248 833.096558,464.831482 
	C833.048889,464.650970 833.231995,464.343536 833.677368,463.948395 
z"/>
<path fill="#8FC3DE" opacity="1.000000" stroke="none" fill-rule="evenodd" 
	d="
M759.318970,468.294739 
	C759.130249,468.385925 758.809021,468.249878 758.369995,467.871307 
	C758.563660,467.775024 758.875061,467.921295 759.318970,468.294739 
z"/>
<path fill="#8FC3DE" opacity="1.000000" stroke="none" fill-rule="evenodd" 
	d="
M870.442383,471.432861 
	C870.324097,471.230469 870.476624,470.843353 870.855652,470.237183 
	C870.959167,470.428131 870.836182,470.838135 870.442383,471.432861 
z"/>
<path fill="#8FC3DE" opacity="1.000000" stroke="none" fill-rule="evenodd" 
	d="
M765.400269,472.574768 
	C765.200378,472.688965 764.821777,472.535492 764.230957,472.157471 
	C764.419617,472.057678 764.820618,472.182404 765.400269,472.574768 
z"/>
<path fill="#8FC3DE" opacity="1.000000" stroke="none" fill-rule="evenodd" 
	d="
M743.779297,497.541046 
	C743.964722,497.424530 744.291504,497.543427 744.784668,497.867676 
	C744.607544,497.974152 744.264099,497.875275 743.779297,497.541046 
z"/>
<path fill="#8FC3DE" opacity="1.000000" stroke="none" fill-rule="evenodd" 
	d="
M862.795166,482.321045 
	C862.706421,482.141083 862.827576,481.827332 863.191406,481.411591 
	C863.408997,481.659790 863.265930,481.952332 862.795166,482.321045 
z"/>
<path fill="#8FC3DE" opacity="1.000000" stroke="none" fill-rule="evenodd" 
	d="
M857.254089,487.947021 
	C857.209717,487.754791 857.426270,487.496429 857.872681,487.126251 
	C857.906738,487.303284 857.710938,487.592072 857.254089,487.947021 
z"/>
<path fill="#8ECBEA" opacity="1.000000" stroke="none" fill-rule="evenodd" 
	d="
M1077.293457,488.044373 
	C1077.237549,487.861664 1077.441528,487.582092 1077.860840,487.155457 
	C1077.901978,487.321411 1077.727661,487.634460 1077.293457,488.044373 
z"/>
<path fill="#8FC3DE" opacity="1.000000" stroke="none" fill-rule="evenodd" 
	d="
M854.578247,490.324951 
	C854.537231,490.121307 854.744385,489.839600 855.220276,489.511841 
	C855.268188,489.726135 855.047302,489.986542 854.578247,490.324951 
z"/>
<path fill="#8FC3DE" opacity="1.000000" stroke="none" fill-rule="evenodd" 
	d="
M848.406860,495.152740 
	C848.398560,494.930634 848.720703,494.636963 849.360901,494.248413 
	C849.365112,494.462738 849.051270,494.771973 848.406860,495.152740 
z"/>
<path fill="#8ECBEA" opacity="1.000000" stroke="none" fill-rule="evenodd" 
	d="
M978.951416,494.307373 
	C979.141479,494.247009 979.417358,494.450989 979.838379,494.869202 
	C979.668091,494.912872 979.352661,494.742279 978.951416,494.307373 
z"/>
<path fill="#8ECBEA" opacity="1.000000" stroke="none" fill-rule="evenodd" 
	d="
M1070.296875,495.035339 
	C1070.248657,494.834229 1070.477539,494.569641 1070.937744,494.176086 
	C1070.970703,494.355347 1070.772217,494.663574 1070.296875,495.035339 
z"/>
<path fill="#8FC3DE" opacity="1.000000" stroke="none" fill-rule="evenodd" 
	d="
M845.331665,497.119415 
	C845.317383,496.910461 845.581177,496.669464 846.113037,496.378723 
	C846.124023,496.581787 845.866882,496.834595 845.331665,497.119415 
z"/>
</svg>